<?xml version="1.0" encoding="UTF-8"?>
<svg width="140px" height="156px" viewBox="0 0 140 156" version="1.1" xmlns="http://www.w3.org/2000/svg" xmlns:xlink="http://www.w3.org/1999/xlink">
    <title>Group</title>
    <g id="Mid-Fid-" stroke="none" stroke-width="1" fill="none" fill-rule="evenodd">
        <g id="GreatPage" transform="translate(-131, -374)">
            <g id="Group" transform="translate(106.0361, 354.1194)">
                <g id="􀈼" transform="translate(74.9663, 61.4948)" fill="#E26CDD" fill-rule="nonzero">
                    <path d="M45,100.175373 C46.0701546,100.175373 46.9976219,99.8031716 47.7824019,99.0587687 C48.5671819,98.3143657 48.9595719,97.4281716 48.9595719,96.4001866 L48.9595719,77.5774254 L48.5850178,69.176306 L53.0796671,73.7490672 L57.7348395,78.4813433 C58.1272295,78.8358209 58.5642093,79.119403 59.0457788,79.3320896 C59.5273484,79.5447761 60.0178359,79.6511194 60.5172414,79.6511194 C61.5517241,79.6511194 62.4167658,79.3232276 63.1123662,78.667444 C63.8079667,78.0116604 64.1557669,77.1697761 64.1557669,76.141791 C64.1557669,75.5746269 64.0398335,75.0606343 63.8079667,74.5998134 C63.5760999,74.1389925 63.2639715,73.7313433 62.8715815,73.3768657 L47.8894174,59.6585821 C47.3543401,59.1623134 46.8638526,58.8166978 46.4179548,58.6217351 C45.9720571,58.4267724 45.4994055,58.329291 45,58.329291 C44.5005945,58.329291 44.0279429,58.4267724 43.5820452,58.6217351 C43.1361474,58.8166978 42.6456599,59.1623134 42.1105826,59.6585821 L27.1284185,73.3768657 C26.7360285,73.7313433 26.4239001,74.1389925 26.1920333,74.5998134 C25.9601665,75.0606343 25.8442331,75.5746269 25.8442331,76.141791 C25.8442331,77.1697761 26.1831153,78.0116604 26.8608799,78.667444 C27.5386445,79.3232276 28.412604,79.6511194 29.4827586,79.6511194 C29.9821641,79.6511194 30.4726516,79.5447761 30.9542212,79.3320896 C31.4357907,79.119403 31.8727705,78.8358209 32.2651605,78.4813433 L36.9203329,73.7490672 L41.4149822,69.176306 L41.0939358,77.5774254 L41.0939358,96.4001866 C41.0939358,97.4281716 41.4774078,98.3143657 42.244352,99.0587687 C43.0112961,99.8031716 43.9298454,100.175373 45,100.175373 Z M16.587396,114 C11.058264,114 6.91141498,112.617537 4.14684899,109.852612 C1.382283,107.087687 0,102.922575 0,97.3572761 L0,16.6958955 C0,11.1660448 1.382283,7.00093284 4.14684899,4.2005597 C6.91141498,1.40018657 11.058264,0 16.587396,0 L41.1474435,0 L41.1474435,39.0279851 C41.1474435,45.7276119 44.5184304,49.0774254 51.2604043,49.0774254 L90,49.0774254 L90,97.3572761 C90,102.887127 88.617717,107.043377 85.853151,109.826026 C83.088585,112.608675 78.941736,114 73.412604,114 L16.587396,114 Z M51.4209275,41.7929104 C49.4589774,41.7929104 48.4780024,40.8358209 48.4780024,38.9216418 L48.4780024,0.58488806 C49.5838288,0.762126866 50.7074911,1.2318097 51.8489893,1.99393657 C52.9904875,2.75606343 54.1854935,3.77518657 55.4340071,5.05130597 L84.9167658,34.880597 C86.2009512,36.1921642 87.2175981,37.3973881 87.9667063,38.4962687 C88.7158145,39.5951493 89.1795482,40.6940299 89.3579073,41.7929104 L51.4209275,41.7929104 Z" id="Shape"></path>
                </g>
                <g id="􀑪" transform="translate(24.9614, 20.2664)" fill="#D4EC39" fill-rule="nonzero">
                    <path d="M63,23.5579454 C63,24.4206873 62.7418033,25.1540179 62.2254098,25.7579373 C61.7090164,26.3618566 61.0204918,26.7673453 60.1598361,26.9744033 L36.5606557,32.1508547 C35.3213115,32.4269321 34.5209016,32.7979111 34.1594262,33.2637918 C33.7979508,33.7296724 33.6172131,34.6355514 33.6172131,35.9814287 L33.6172131,83.345959 C33.6172131,87.1075136 32.997541,90.3082861 31.7581967,92.9482763 C30.5188525,95.5882665 28.9266393,97.719239 26.9815574,99.3411937 C25.0364754,100.963149 22.9709016,102.145105 20.7848361,102.887063 C18.5987705,103.629021 16.5590164,104 14.6655738,104 C10.3622951,104 6.84221311,102.749024 4.10532787,100.247073 C1.36844262,97.7451212 0,94.5098391 0,90.5412264 C0,86.641633 1.23934426,83.3977235 3.71803279,80.8094978 C6.19672131,78.2212721 10.0180328,76.3750044 15.1819672,75.2706948 L23.392623,73.5624658 C25.802459,73.0793304 26.8696721,71.526395 26.5942623,68.9036596 L26.4909836,11.3415201 C26.4909836,8.47721703 28.195082,6.66545905 31.6032787,5.90624618 L58.1459016,0.108620619 C59.4540984,-0.167456788 60.5901639,0.0827383624 61.5540984,0.859206071 C62.5180328,1.63567378 63,2.71410115 63,4.09448819 L63,23.5579454 Z" id="Path"></path>
                </g>
            </g>
        </g>
    </g>
</svg>